<?xml version="1.0" standalone="no"?>
<!DOCTYPE svg PUBLIC "-//W3C//DTD SVG 20010904//EN"
 "http://www.w3.org/TR/2001/REC-SVG-20010904/DTD/svg10.dtd">
<svg version="1.0" xmlns="http://www.w3.org/2000/svg"
 width="389.000000pt" height="389.000000pt" viewBox="0 0 389.000000 389.000000"
 preserveAspectRatio="xMidYMid meet">
<metadata>
Created by potrace 1.11, written by Peter Selinger 2001-2013
</metadata>
<g transform="translate(0.000000,389.000000) scale(0.100000,-0.100000)"
fill="#000000" stroke="none">
<path d="M1855 3276 c-219 -45 -414 -111 -580 -193 -60 -30 -117 -61 -126 -69
-8 -8 -19 -14 -23 -14 -19 0 -190 -133 -275 -214 -81 -78 -198 -229 -261 -336
-122 -209 -186 -493 -162 -717 21 -187 64 -306 159 -440 118 -165 338 -298
548 -332 155 -24 309 -18 420 17 179 56 335 193 413 360 24 52 26 68 27 182 0
118 -2 129 -31 196 -80 185 -242 319 -432 359 -134 28 -308 18 -415 -24 -38
-15 -99 -14 -119 2 -26 19 -37 80 -28 145 11 76 39 181 55 207 7 11 16 31 20
43 6 22 73 141 85 152 3 3 18 23 34 45 51 70 198 210 279 264 129 87 287 159
465 211 39 12 72 23 73 23 0 1 4 37 7 80 9 90 22 85 -133 53z"/>
<path d="M2455 2920 c-121 -18 -213 -56 -317 -132 -129 -94 -218 -227 -241
-363 -37 -216 114 -478 338 -584 144 -69 370 -81 525 -27 92 32 140 25 160
-24 32 -78 -27 -317 -110 -445 -11 -16 -23 -37 -27 -45 -15 -33 -120 -159
-181 -217 -145 -139 -372 -261 -618 -332 l-71 -21 -7 -77 c-3 -42 -4 -78 -3
-80 5 -4 197 34 267 53 515 141 798 324 1078 699 60 80 149 275 181 395 58
219 53 486 -12 666 -132 364 -549 596 -962 534z"/>
</g>
</svg>
